/* XPM */
static char *_2a1a92a92364033de16784d6e50d380EBt7vw0MEBImPOPV[] = {
/* columns rows colors chars-per-pixel */
"64 64 31 1 ",
"  c None",
". c black",
"X c gray11",
"o c #231C0A",
"O c #312611",
"+ c #382A15",
"@ c #3F3115",
"# c gray15",
"$ c #313131",
"% c #3F3F3F",
"& c #493418",
"* c #50381C",
"= c #5E3F1F",
"- c #654223",
"; c #704626",
": c #774D2A",
"> c #774F2E",
", c #7E502D",
"< c #494949",
"1 c gray34",
"2 c #626262",
"3 c #6C6C6C",
"4 c gray48",
"5 c #885431",
"6 c #8C5734",
"7 c #855B3E",
"8 c #935B38",
"9 c #9D623B",
"0 c #A4693F",
"q c #845C41",
"w c gray52",
/* pixels */
"                                                                ",
"                                                                ",
"                                                                ",
"                                                                ",
"                                                                ",
"                                                                ",
"                                                                ",
"                                                                ",
"                                                                ",
"                                                                ",
"                                                                ",
"                                                                ",
"                                                                ",
"                                                                ",
"                                                                ",
"                                                                ",
"                                                                ",
"                                                                ",
"                                                                ",
"                                                                ",
"                                                                ",
"                                                                ",
"                                                                ",
"                                                                ",
"                                                                ",
"                                                                ",
"                                                                ",
"                                                                ",
"                                                                ",
"                                                                ",
"                                                                ",
"                       2222222223333334444                      ",
"                     32<<<<<<<<<<<1111122243                    ",
"                    34<$XXXX#######$$%%%%<2<2                   ",
"                    334ww443333322221111<<%$$                   ",
"                   q53344332221111<<<%%%$$$$@@                  ",
"                   >6,55:;;;----===***@@@@@@*@                  ",
"                  7:669050996,8865,-=;--&-=@@*@                 ",
"                  :6:9068099,:8865,-=;;-=*-=@*@                 ",
"                  :6:9050999,,8865,;*;;;-&-=@*%                 ",
"                 <1342050998,8865,:;*;;;-&%%%%$                 ",
"                 <23344w433332222211111<<<<$$$$@                ",
"                 <33333422221111<<<<<<%%%%$$$$$@                ",
"                 :-<123322221111<<<<<<%%%%%$$$*@                ",
"                 :6:966*5,:;@---====o*@@@@&**@*@                ",
"                 :6:90060999,8655,:;*;;;-=&**@*@                ",
"                 :6:90060999,8655,:;*;;;-=&**@*@                ",
"                 :6:90060999:8655,:;*;;;-=&**@*@                ",
"                 :6:90060999:8655,:;*;;;-=&**@*@                ",
"                 :6:90060999:8655,:;*;;;-=&**@*@                ",
"                 :6:90060999:8655,:;*;;;-=&**@*@                ",
"                 36:90050999;8655,:;*;;;-=&**@%%                ",
"                 24443050999;8655,:;*;;;-=&%%%%$                ",
"                 13334w4333332222211111<<<<%$$$.                ",
"                 <12334322221111<<<<<<%%%%%$$$$+                ",
"                  -<111222221111<<<<<<%%%%%+++&*                ",
"                  ::;;;;;;==O==*****o****++*@*@*                ",
"                  :6:8050885-5,,,,:;*;;-=@**@*@                 ",
"                   :669:8885-:,,,,:=*;;-=@**@*@                 ",
"                   26:66:885-;,,,:;**;;-*@*@*@                  ",
"                   24w46:555;-::::;*=;-=@*@@@$                  ",
"                    333444433322111<<<%%%$$#X                   ",
"                     32332221111<<<<%%%$$$##                    ",
"                       <<<<<%%%%%$$$$#####                      "
};
